<svg width="16" height="16" viewBox="0 0 16 16" fill="none" xmlns="http://www.w3.org/2000/svg">
<g id="Cancel" clip-path="url(#clip0_2130_1759)">
<path id="Vector" d="M8 0.5C12.1207 0.5 15.5 3.87927 15.5 8C15.5 12.1207 12.1207 15.5 8 15.5C3.87927 15.5 0.5 12.1207 0.5 8C0.5 3.87927 3.87927 0.5 8 0.5Z" fill="#7DBD00" stroke="#7DBD00"/>
<path id="Vector_2" d="M8.5 0.518555C12.3905 0.778658 15.5 4.04727 15.5 8C15.5 11.9527 12.3905 15.2203 8.5 15.4805V0.518555Z" fill="#7DBD00" stroke="#7DBD00"/>
<path id="Vector_3" d="M9.32187 8L11.975 10.6532L10.6532 11.975L8.00002 9.32185L5.34687 11.975L4.02502 10.6532L6.67818 8L4.02502 5.34685L5.34687 4.025L8.00002 6.67816L10.6532 4.025L11.975 5.34685L9.32187 8Z" fill="#E7E7E7"/>
<path id="Vector_4" d="M9.32184 8L11.975 10.6532L10.6532 11.975L8 9.32185V6.67816L10.6532 4.025L11.975 5.34685L9.32184 8Z" fill="#D3D3D8"/>
</g>
<defs>
<clipPath id="clip0_2130_1759">
<rect width="16" height="16" fill="white"/>
</clipPath>
</defs>
</svg>
