<svg width="18" height="18" viewBox="0 0 18 18" fill="none" xmlns="http://www.w3.org/2000/svg">
<g id="add_user">
<path id="Ellipse 14" d="M8.99959 17.317C13.5924 17.317 17.3156 13.5938 17.3156 9.00098C17.3156 4.40818 13.5924 0.684982 8.99959 0.684982C4.40679 0.684982 0.683594 4.40818 0.683594 9.00098C0.683594 13.5938 4.40679 17.317 8.99959 17.317Z" fill="white"/>
<path id="plus" d="M9 0.000976562C7.21997 0.000976563 5.47991 0.528817 3.99987 1.51775C2.51983 2.50668 1.36628 3.91229 0.685088 5.55683C0.00389957 7.20136 -0.17433 9.01096 0.172937 10.7568C0.520203 12.5026 1.37737 14.1063 2.63604 15.3649C3.89472 16.6236 5.49836 17.4808 7.24419 17.828C8.99002 18.1753 10.7996 17.9971 12.4442 17.3159C14.0887 16.6347 15.4943 15.4812 16.4832 14.0011C17.4722 12.5211 18 10.781 18 9.00098C18 6.61403 17.0518 4.32484 15.364 2.63702C13.6761 0.949188 11.387 0.000976563 9 0.000976562ZM12 9.75098H9.75V12.001C9.75 12.1999 9.67099 12.3907 9.53033 12.5313C9.38968 12.672 9.19892 12.751 9 12.751C8.80109 12.751 8.61033 12.672 8.46967 12.5313C8.32902 12.3907 8.25 12.1999 8.25 12.001V9.75098H6C5.80109 9.75098 5.61033 9.67196 5.46967 9.53131C5.32902 9.39065 5.25 9.19989 5.25 9.00098C5.25 8.80206 5.32902 8.6113 5.46967 8.47065C5.61033 8.32999 5.80109 8.25098 6 8.25098H8.25V6.00098C8.25 5.80206 8.32902 5.6113 8.46967 5.47065C8.61033 5.32999 8.80109 5.25098 9 5.25098C9.19892 5.25098 9.38968 5.32999 9.53033 5.47065C9.67099 5.6113 9.75 5.80206 9.75 6.00098V8.25098H12C12.1989 8.25098 12.3897 8.32999 12.5303 8.47065C12.671 8.6113 12.75 8.80206 12.75 9.00098C12.75 9.19989 12.671 9.39065 12.5303 9.53131C12.3897 9.67196 12.1989 9.75098 12 9.75098Z" fill="#7DBD00"/>
</g>
</svg>
