<svg width="24" height="24" viewBox="0 0 24 24" fill="none" xmlns="http://www.w3.org/2000/svg">
<g id="Exchange" clip-path="url(#clip0_985_7496)">
<path id="Vector" d="M12.5445 9.54095V10.7476C12.5445 11.1309 12.621 11.4524 12.7721 11.7029C12.9804 12.0486 13.3225 12.2467 13.7108 12.2467C14.0913 12.2467 14.4694 12.0614 14.8346 11.6963L18.82 7.71082C19.6951 6.83575 19.6951 5.41193 18.82 4.53687L14.8346 0.551392C14.4694 0.186096 14.0913 0.000976562 13.7108 0.000976562C13.1302 0.000976562 12.5445 0.4646 12.5445 1.50006V2.59595C6.88613 2.93011 2.20193 7.27246 1.50576 12.9577C1.46676 13.2752 1.6473 13.5792 1.94485 13.6969C2.02907 13.7302 2.11678 13.7463 2.20339 13.7463C2.42275 13.7463 2.63552 13.6436 2.77102 13.4585C4.63833 10.9071 7.6365 9.38385 10.791 9.38385C11.3755 9.38385 11.9633 9.43658 12.5445 9.54095Z" fill="#F0F0F0"/>
<path id="Vector_2" d="M22.0436 10.3051C21.7461 10.1872 21.4066 10.2853 21.2175 10.5437C19.3503 13.0949 16.3522 14.6181 13.1976 14.6181C12.6132 14.6181 12.0254 14.5654 11.4442 14.461V13.2544C11.4442 12.2189 10.8583 11.7553 10.2778 11.7553C9.89735 11.7553 9.51923 11.9406 9.15394 12.3059L5.16846 16.2912C4.29359 17.1662 4.29359 18.5901 5.16865 19.4653L9.15394 23.4506C9.51923 23.8159 9.89735 24.001 10.2778 24.001C10.8583 24.001 11.4442 23.5374 11.4442 22.5019V21.406C17.1027 21.0719 21.7868 16.7295 22.4829 11.0445C22.5219 10.7268 22.3414 10.4228 22.0436 10.3051Z" fill="#F0F0F0"/>
</g>
<defs>
<clipPath id="clip0_985_7496">
<rect width="24" height="24" fill="white" transform="translate(0.000488281 0.000976562)"/>
</clipPath>
</defs>
</svg>
