<svg width="17" height="16" viewBox="0 0 17 16" fill="none" xmlns="http://www.w3.org/2000/svg">
<g id="layer1" filter="url(#filter0_d_1642_694)">
<path id="path23303" d="M8.50322 0.664673C4.46103 0.664673 1.16467 3.96103 1.16467 8.00322C1.16467 12.0454 4.46103 15.3352 8.50322 15.3352C12.5454 15.3352 15.8352 12.0454 15.8352 8.00322C15.8358 7.91512 15.8188 7.82779 15.7854 7.74629C15.7519 7.66478 15.7027 7.59071 15.6405 7.52836C15.5782 7.466 15.5042 7.4166 15.4228 7.38301C15.3414 7.34941 15.2541 7.3323 15.166 7.33264C15.0783 7.33298 14.9916 7.35061 14.9107 7.38451C14.8299 7.41841 14.7566 7.46792 14.6949 7.5302C14.6332 7.59249 14.5844 7.66633 14.5513 7.74749C14.5182 7.82866 14.5014 7.91556 14.5019 8.00322C14.5019 11.3248 11.8248 14.0019 8.50322 14.0019C5.18161 14.0019 2.49801 11.3248 2.49801 8.00322C2.49801 4.68161 5.18161 1.99801 8.50322 1.99801C8.67912 1.99732 8.84763 1.92714 8.97202 1.80275C9.09641 1.67836 9.16659 1.50985 9.16728 1.33394C9.16762 1.2464 9.15072 1.15964 9.11753 1.07862C9.08434 0.997608 9.03552 0.923923 8.97386 0.861775C8.9122 0.799627 8.83889 0.750234 8.75814 0.716415C8.67739 0.682596 8.59076 0.665014 8.50322 0.664673ZM11.0332 1.16597C10.7729 1.16849 10.5272 1.32391 10.4225 1.58004C10.282 1.92114 10.4442 2.31155 10.7858 2.45113C10.7936 2.45441 10.7986 2.45869 10.8052 2.46146C11.1463 2.60584 11.54 2.44433 11.6815 2.10209C11.8226 1.76235 11.6616 1.3725 11.3221 1.23099C11.3125 1.22696 11.3019 1.22016 11.2934 1.21663C11.2082 1.18151 11.1199 1.16509 11.0332 1.16597ZM13.2024 2.60868C13.0267 2.61013 12.8588 2.68065 12.735 2.80529C12.4733 3.06588 12.4733 3.49002 12.735 3.75061C12.7405 3.75615 12.7438 3.75943 12.7493 3.76497C13.0086 4.02806 13.4327 4.03056 13.6947 3.77026C13.9564 3.50968 13.9564 3.08553 13.6947 2.82495C13.6879 2.81814 13.6821 2.8121 13.6753 2.80555C13.5503 2.67969 13.3798 2.60883 13.2024 2.60868ZM8.50322 3.33264C8.41512 3.33212 8.32779 3.34907 8.24629 3.38251C8.16478 3.41594 8.09071 3.4652 8.02836 3.52743C7.966 3.58967 7.9166 3.66364 7.88301 3.74508C7.84941 3.82652 7.8323 3.91382 7.83264 4.00191V8.00322C7.833 8.12694 7.86777 8.24814 7.93308 8.35323C7.99839 8.45832 8.09165 8.54316 8.20243 8.59827L10.8691 9.9316C10.9476 9.97092 11.033 9.99437 11.1205 10.0006C11.2081 10.0068 11.296 9.99571 11.3792 9.96788C11.4624 9.94006 11.5394 9.89608 11.6055 9.83846C11.6717 9.78084 11.7259 9.71072 11.7649 9.63212C11.8043 9.55367 11.8277 9.46822 11.8339 9.38069C11.8402 9.29315 11.829 9.20525 11.8012 9.12202C11.7734 9.03879 11.7294 8.96187 11.6718 8.89568C11.6142 8.82948 11.5441 8.77532 11.4655 8.73629L9.16728 7.58915V4.00191C9.16762 3.91436 9.15072 3.82761 9.11753 3.74659C9.08434 3.66558 9.03552 3.59189 8.97386 3.52974C8.9122 3.4676 8.83889 3.4182 8.75814 3.38438C8.67739 3.35056 8.59076 3.33298 8.50322 3.33264ZM14.6595 4.76624C14.5722 4.76573 14.4834 4.78236 14.3977 4.81832C14.0554 4.95982 13.894 5.35353 14.0384 5.69462C14.0416 5.70268 14.0459 5.70722 14.0487 5.71402C14.1883 6.05551 14.5787 6.21913 14.9198 6.0786C15.2613 5.93904 15.4249 5.54861 15.2844 5.20751C15.2806 5.19844 15.2773 5.19088 15.274 5.18282C15.1694 4.92466 14.9213 4.76775 14.6595 4.76624Z" fill="#DEDEDE"/>
</g>
<defs>
<filter id="filter0_d_1642_694" x="0.164673" y="-0.335327" width="16.6705" height="16.6705" filterUnits="userSpaceOnUse" color-interpolation-filters="sRGB">
<feFlood flood-opacity="0" result="BackgroundImageFix"/>
<feColorMatrix in="SourceAlpha" type="matrix" values="0 0 0 0 0 0 0 0 0 0 0 0 0 0 0 0 0 0 127 0" result="hardAlpha"/>
<feOffset/>
<feGaussianBlur stdDeviation="0.5"/>
<feComposite in2="hardAlpha" operator="out"/>
<feColorMatrix type="matrix" values="0 0 0 0 0 0 0 0 0 0 0 0 0 0 0 0 0 0 0.25 0"/>
<feBlend mode="normal" in2="BackgroundImageFix" result="effect1_dropShadow_1642_694"/>
<feBlend mode="normal" in="SourceGraphic" in2="effect1_dropShadow_1642_694" result="shape"/>
</filter>
</defs>
</svg>
