<svg width="26" height="24" viewBox="0 0 26 24" fill="none" xmlns="http://www.w3.org/2000/svg">
<g id="Phone call" clip-path="url(#clip0_985_6858)">
<g id="Phone_Call_4_">
<g id="Group">
<g id="Group_2">
<path id="Vector" d="M21.8036 19.6753C21.7359 19.0436 21.3692 18.4791 20.7972 18.1269L16.9194 15.7409C16.0141 15.184 14.8039 15.2966 14.0354 16.0045L12.7962 17.1581C12.5142 17.2487 11.2103 16.7385 9.53133 15.1881C7.85169 13.637 7.30646 12.4436 7.37785 12.206L8.64911 11.0325C9.41677 10.3239 9.53728 9.20399 8.93476 8.37041L6.34984 4.79094C5.96822 4.2629 5.35676 3.92441 4.67243 3.86193C3.98658 3.79874 3.3186 4.02121 2.83283 4.46962L0.915127 6.2398C-1.71295 8.66573 1.7096 13.9968 6.26651 18.2039C9.36447 21.0636 16.1439 25.9935 19.2276 23.1436L21.1453 21.3734C21.631 20.9257 21.8713 20.3063 21.8036 19.6753Z" fill="#F0F0F0"/>
</g>
</g>
<g id="Group_3">
<g id="Group_4">
<path id="Vector_2" d="M14.5747 0.000976562C14.1537 0.000976562 13.813 0.315461 13.813 0.704102C13.813 1.09274 14.1537 1.40723 14.5747 1.40723C20.0347 1.40723 24.4771 5.50785 24.4771 10.5479C24.4771 10.9365 24.8177 11.251 25.2388 11.251C25.6598 11.251 26.0005 10.9365 26.0005 10.5479C26.0005 4.73198 20.8752 0.000976562 14.5747 0.000976562ZM14.5747 2.81348C14.1537 2.81348 13.813 3.12796 13.813 3.5166C13.813 3.90524 14.1537 4.21973 14.5747 4.21973C18.355 4.21973 21.4302 7.05834 21.4302 10.5479C21.4302 10.9365 21.7709 11.251 22.1919 11.251C22.6129 11.251 22.9536 10.9365 22.9536 10.5479C22.9536 6.28312 19.1948 2.81348 14.5747 2.81348ZM14.5747 5.62598C14.1537 5.62598 13.813 5.94046 13.813 6.3291C13.813 6.71774 14.1537 7.03223 14.5747 7.03223C16.6747 7.03223 18.3833 8.60943 18.3833 10.5479C18.3833 10.9365 18.724 11.251 19.145 11.251C19.566 11.251 19.9067 10.9365 19.9067 10.5479C19.9067 7.83421 17.5145 5.62598 14.5747 5.62598ZM14.5747 8.43848C14.1537 8.43848 13.813 8.75296 13.813 9.1416C13.813 9.53024 14.1537 9.84473 14.5747 9.84473C14.995 9.84473 15.3364 10.1599 15.3364 10.5479C15.3364 10.9365 15.6771 11.251 16.0981 11.251C16.5192 11.251 16.8599 10.9365 16.8599 10.5479C16.8599 9.3847 15.8348 8.43848 14.5747 8.43848Z" fill="#F0F0F0"/>
</g>
</g>
</g>
</g>
<defs>
<clipPath id="clip0_985_6858">
<rect width="26" height="24" fill="white" transform="translate(0.000488281 0.000976562)"/>
</clipPath>
</defs>
</svg>
