<svg width="17" height="16" viewBox="0 0 17 16" fill="none" xmlns="http://www.w3.org/2000/svg">
<g id="Ikon">
<g id="Vector" filter="url(#filter0_d_1642_2410)">
<path d="M15.4473 11.1954C15.5971 10.2312 15.4294 9.24441 14.9696 8.38379C14.5098 7.52318 13.7826 6.83534 12.8978 6.42396C13.1222 5.37899 12.9645 4.28822 12.4535 3.34951C11.938 2.40006 11.0979 1.66794 10.0868 1.28705C9.07582 0.906154 7.96147 0.901954 6.94761 1.27521C5.93374 1.64847 5.08813 2.37425 4.56544 3.31978C4.04275 4.26532 3.87791 5.36742 4.10108 6.42451C3.53882 6.68583 3.03666 7.06058 2.62614 7.52523C2.21561 7.98987 1.90559 8.53438 1.71553 9.12456C1.52548 9.71473 1.4595 10.3378 1.52174 10.9547C1.58398 11.5716 1.7731 12.169 2.07721 12.7093C2.38132 13.2496 2.79386 13.7212 3.28893 14.0945C3.784 14.4678 4.35089 14.7346 4.95402 14.8784C5.55715 15.0221 6.18349 15.0396 6.7937 14.9297C7.40391 14.8199 7.98481 14.585 8.49993 14.24C9.12808 14.6606 9.85212 14.9162 10.6051 14.983C11.3582 15.0498 12.1159 14.9258 12.8083 14.6224C13.5007 14.3189 14.1055 13.8458 14.5667 13.2469C15.028 12.6479 15.3308 11.9423 15.4473 11.1954ZM6.68073 2.50726C7.32297 2.11686 8.07377 1.94341 8.82218 2.01256C9.57058 2.08171 10.2769 2.38979 10.8367 2.89127C11.3966 3.39275 11.7802 4.06102 11.931 4.79733C12.0818 5.53364 11.9917 6.29893 11.6741 6.9801C11.3564 7.66127 10.8281 8.22219 10.1671 8.57996C9.50611 8.93773 8.74757 9.07338 8.00356 8.96685C7.25956 8.86033 6.56956 8.51728 6.03553 7.98841C5.5015 7.45954 5.15177 6.7729 5.03803 6.02996C4.93401 5.34624 5.03446 4.64702 5.32674 4.02023C5.61902 3.39344 6.0901 2.86706 6.68073 2.50726ZM5.34538 13.94C4.62838 13.8039 3.97188 13.447 3.46778 12.9193C2.96368 12.3915 2.63723 11.7194 2.53413 10.9969C2.43103 10.2744 2.55643 9.53778 2.89279 8.89011C3.22914 8.24244 3.75961 7.71617 4.40993 7.38496C4.84433 8.30911 5.57745 9.05993 6.49098 9.51624C7.40451 9.97255 8.44514 10.1077 9.44493 9.89996C9.53892 10.4569 9.49727 11.0282 9.32349 11.5656C9.14972 12.103 8.84895 12.5906 8.44668 12.987C8.04441 13.3834 7.55249 13.677 7.01262 13.8429C6.47276 14.0088 5.90085 14.0421 5.34538 13.94ZM11.6454 13.9417C10.843 14.0907 10.0137 13.9558 9.29993 13.56C9.78739 13.0312 10.1418 12.3939 10.3337 11.7008C10.5256 11.0077 10.5495 10.2788 10.4035 9.57466C11.3679 9.12495 12.1411 8.34709 12.5849 7.37996C13.2369 7.71097 13.7689 8.23784 14.1062 8.88662C14.4434 9.5354 14.5691 10.2735 14.4654 10.9973C14.3617 11.7212 14.034 12.3943 13.5282 12.9224C13.0224 13.4505 12.3641 13.8069 11.6454 13.9417Z" fill="white"/>
</g>
</g>
<defs>
<filter id="filter0_d_1642_2410" x="0.499023" y="-0.00170898" width="16.0017" height="16.0027" filterUnits="userSpaceOnUse" color-interpolation-filters="sRGB">
<feFlood flood-opacity="0" result="BackgroundImageFix"/>
<feColorMatrix in="SourceAlpha" type="matrix" values="0 0 0 0 0 0 0 0 0 0 0 0 0 0 0 0 0 0 127 0" result="hardAlpha"/>
<feOffset/>
<feGaussianBlur stdDeviation="0.5"/>
<feComposite in2="hardAlpha" operator="out"/>
<feColorMatrix type="matrix" values="0 0 0 0 0 0 0 0 0 0 0 0 0 0 0 0 0 0 0.25 0"/>
<feBlend mode="normal" in2="BackgroundImageFix" result="effect1_dropShadow_1642_2410"/>
<feBlend mode="normal" in="SourceGraphic" in2="effect1_dropShadow_1642_2410" result="shape"/>
</filter>
</defs>
</svg>
