<svg width="32" height="32" viewBox="0 0 32 32" fill="none" xmlns="http://www.w3.org/2000/svg">
<g id="comment">
<g id="Group" filter="url(#filter0_d_985_7084)">
<path id="comment_2" d="M24.9385 5.21898C23.2082 3.78582 21.1583 2.79016 18.9621 2.31612C16.7659 1.84209 14.4878 1.90359 12.3204 2.49545C10.153 3.0873 8.15981 4.19211 6.50932 5.71655C4.85883 7.241 3.59948 9.14029 2.83766 11.254C2.07583 13.3677 1.83392 15.6337 2.13235 17.8605C2.43078 20.0874 3.26079 22.2098 4.55226 24.0483C5.84373 25.8868 7.55872 27.3875 9.55236 28.4236C11.546 29.4597 13.7597 30.0007 16.0065 30.001H24.1505C25.6969 29.9991 27.1795 29.384 28.273 28.2905C29.3665 27.197 29.9816 25.7144 29.9835 24.168V15.12C29.8599 13.2135 29.3488 11.3522 28.4813 9.65002C27.6139 7.94781 26.4084 6.44041 24.9385 5.21998V5.21898ZM11.3195 10.167H15.9855C16.289 10.1759 16.577 10.3027 16.7885 10.5204C17 10.7382 17.1183 11.0299 17.1183 11.3335C17.1183 11.6371 17 11.9287 16.7885 12.1465C16.577 12.3643 16.289 12.4911 15.9855 12.5H11.3195C11.1634 12.5045 11.0081 12.4778 10.8625 12.4212C10.717 12.3646 10.5843 12.2794 10.4723 12.1707C10.3603 12.0619 10.2713 11.9317 10.2105 11.7879C10.1497 11.6441 10.1183 11.4896 10.1183 11.3335C10.1183 11.1773 10.1497 11.0228 10.2105 10.879C10.2713 10.7352 10.3603 10.6051 10.4723 10.4963C10.5843 10.3875 10.717 10.3023 10.8625 10.2458C11.0081 10.1892 11.1634 10.1624 11.3195 10.167ZM20.6515 21.832H11.3195C11.016 21.8231 10.728 21.6963 10.5165 21.4785C10.305 21.2607 10.1867 20.9691 10.1867 20.6655C10.1867 20.3619 10.305 20.0702 10.5165 19.8524C10.728 19.6347 11.016 19.5079 11.3195 19.499H20.6515C20.8076 19.4944 20.963 19.5212 21.1085 19.5778C21.254 19.6343 21.3867 19.7195 21.4987 19.8283C21.6107 19.9371 21.6997 20.0672 21.7605 20.211C21.8213 20.3548 21.8527 20.5093 21.8527 20.6655C21.8527 20.8216 21.8213 20.9761 21.7605 21.1199C21.6997 21.2638 21.6107 21.3939 21.4987 21.5027C21.3867 21.6114 21.254 21.6966 21.1085 21.7532C20.963 21.8098 20.8076 21.8365 20.6515 21.832ZM20.6515 17.166H11.3195C11.1634 17.1705 11.0081 17.1438 10.8625 17.0872C10.717 17.0306 10.5843 16.9454 10.4723 16.8367C10.3603 16.7279 10.2713 16.5977 10.2105 16.4539C10.1497 16.3101 10.1183 16.1556 10.1183 15.9995C10.1183 15.8433 10.1497 15.6888 10.2105 15.545C10.2713 15.4012 10.3603 15.2711 10.4723 15.1623C10.5843 15.0535 10.717 14.9683 10.8625 14.9118C11.0081 14.8552 11.1634 14.8284 11.3195 14.833H20.6515C20.8076 14.8284 20.963 14.8552 21.1085 14.9118C21.254 14.9683 21.3867 15.0535 21.4987 15.1623C21.6107 15.2711 21.6997 15.4012 21.7605 15.545C21.8213 15.6888 21.8527 15.8433 21.8527 15.9995C21.8527 16.1556 21.8213 16.3101 21.7605 16.4539C21.6997 16.5977 21.6107 16.7279 21.4987 16.8367C21.3867 16.9454 21.254 17.0306 21.1085 17.0872C20.963 17.1438 20.8076 17.1705 20.6515 17.166Z" fill="#F0F0F0"/>
</g>
</g>
<defs>
<filter id="filter0_d_985_7084" x="0.00830078" y="0.000976562" width="31.9751" height="32" filterUnits="userSpaceOnUse" color-interpolation-filters="sRGB">
<feFlood flood-opacity="0" result="BackgroundImageFix"/>
<feColorMatrix in="SourceAlpha" type="matrix" values="0 0 0 0 0 0 0 0 0 0 0 0 0 0 0 0 0 0 127 0" result="hardAlpha"/>
<feOffset/>
<feGaussianBlur stdDeviation="1"/>
<feColorMatrix type="matrix" values="0 0 0 0 0 0 0 0 0 0 0 0 0 0 0 0 0 0 0.161 0"/>
<feBlend mode="normal" in2="BackgroundImageFix" result="effect1_dropShadow_985_7084"/>
<feBlend mode="normal" in="SourceGraphic" in2="effect1_dropShadow_985_7084" result="shape"/>
</filter>
</defs>
</svg>
