<svg width="10" height="13" viewBox="0 0 10 13" fill="none" xmlns="http://www.w3.org/2000/svg">
<g id="Group">
<g id="Group_2">
<path id="Vector" d="M5.00024 0.5C2.60387 0.5 0.654297 2.44958 0.654297 4.84592C0.654297 7.81986 4.54349 12.1858 4.70908 12.3702C4.86461 12.5434 5.13616 12.5431 5.29141 12.3702C5.45699 12.1858 9.34619 7.81986 9.34619 4.84592C9.34614 2.44958 7.39659 0.5 5.00024 0.5ZM5.00024 7.03248C3.79457 7.03248 2.81371 6.05159 2.81371 4.84592C2.81371 3.64025 3.79459 2.65939 5.00024 2.65939C6.20589 2.65939 7.18675 3.64027 7.18675 4.84595C7.18675 6.05162 6.20589 7.03248 5.00024 7.03248Z" fill="white"/>
</g>
</g>
</svg>
