<svg width="26" height="6" viewBox="0 0 26 6" fill="none" xmlns="http://www.w3.org/2000/svg">
<g id="XMLID_88_">
<path id="XMLID_89_" d="M3.00047 0.000976562C1.34628 0.000976562 0.000488281 1.34677 0.000488281 3.00096C0.000488281 4.65515 1.34628 6.00095 3.00047 6.00095C4.65467 6.00095 6.00046 4.65515 6.00046 3.00096C6.00046 1.34677 4.65467 0.000976562 3.00047 0.000976562Z" fill="#F0F0F0"/>
<path id="XMLID_91_" d="M12.6003 0.000976562C10.9461 0.000976562 9.60034 1.34677 9.60034 3.00096C9.60034 4.65515 10.9461 6.00095 12.6003 6.00095C14.2545 6.00095 15.6003 4.65515 15.6003 3.00096C15.6003 1.34677 14.2545 0.000976562 12.6003 0.000976562Z" fill="#F0F0F0"/>
<path id="XMLID_93_" d="M22.2004 0.000976562C20.5462 0.000976562 19.2004 1.34677 19.2004 3.00096C19.2004 4.65515 20.5462 6.00095 22.2004 6.00095C23.8546 6.00095 25.2004 4.65515 25.2004 3.00096C25.2004 1.34677 23.8546 0.000976562 22.2004 0.000976562Z" fill="#F0F0F0"/>
</g>
</svg>
